<svg width="40" height="40" viewBox="0 0 40 40" fill="none" xmlns="http://www.w3.org/2000/svg">
<path d="M23.3333 15.5V20.3333H27.6667C28 20.3333 28.1667 20.6667 28.1667 21L27.5 24.1667C27.5 24.3333 27.1667 24.5 27 24.5H23.3333V36.6667H18.3333V24.6667H15.5C15.1667 24.6667 15 24.5 15 24.1667V21C15 20.6667 15.1667 20.5 15.5 20.5H18.3333V15C18.3333 12.1667 20.5 10 23.3333 10H27.8333C28.1667 10 28.3333 10.1667 28.3333 10.5V14.5C28.3333 14.8333 28.1667 15 27.8333 15H23.8333C23.5 15 23.3333 15.1667 23.3333 15.5Z" stroke="#502D5D" stroke-width="1.5" stroke-miterlimit="10" stroke-linecap="round"/>
<path d="M25.0007 36.6663H15.0007C6.66732 36.6663 3.33398 33.333 3.33398 24.9997V14.9997C3.33398 6.66634 6.66732 3.33301 15.0007 3.33301H25.0007C33.334 3.33301 36.6673 6.66634 36.6673 14.9997V24.9997C36.6673 33.333 33.334 36.6663 25.0007 36.6663Z" stroke="#502D5D" stroke-width="1.5" stroke-linecap="round" stroke-linejoin="round"/>
</svg>
